<?xml version="1.0" encoding="utf-8"?>
<!-- Generator: Adobe Illustrator 16.0.0, SVG Export Plug-In . SVG Version: 6.00 Build 0)  -->
<!DOCTYPE svg PUBLIC "-//W3C//DTD SVG 1.1//EN" "http://www.w3.org/Graphics/SVG/1.1/DTD/svg11.dtd">
<svg version="1.1" id="Layer_1" xmlns="http://www.w3.org/2000/svg" xmlns:xlink="http://www.w3.org/1999/xlink" x="0px" y="0px"
	 width="1000px" height="1000px" viewBox="0 0 1000 1000" enable-background="new 0 0 1000 1000" xml:space="preserve">
<g>
	<path opacity="0.6" fill-rule="evenodd" clip-rule="evenodd" fill="#E6624A" d="M626.626,537.419
		c0.013-2.291-1.863-4.205-4.149-4.225c-2.268-0.017-4.191,1.889-4.206,4.174c-0.018,2.284,1.862,4.188,4.153,4.213
		C624.707,541.605,626.608,539.722,626.626,537.419z"/>
	<g>
		<path fill="#E6624A" d="M174.983,572.684h18.271h1.629c5.004,0.111,8.263,2.885,8.263,7.093c0,4.104-3.375,6.985-8.263,6.985
			h-1.629h-18.271v19.285v1.885c0,5.764-3.493,9.532-8.846,9.532s-8.961-3.879-8.961-9.532v-1.885v-51.429v-1.995
			c0.115-6.431,3.725-9.866,10.358-9.866h2.095h28.979h1.746c5.586,0.113,9.078,3.104,9.078,7.759s-3.608,7.76-9.078,7.76h-1.746
			h-23.625V572.684z"/>
		<path fill="#E6624A" d="M232.706,563.152c5.469,0,10.009,4.1,10.009,9.09c0,4.876-4.19,8.756-9.311,8.756
			c-2.21,0-2.561-0.223-5.586-1.886c-1.163-0.664-2.095-0.998-3.025-0.998c-2.445,0-3.375,1.885-3.375,6.761v22.726v1.661
			c-0.116,4.989-3.026,8.202-7.681,8.202c-4.657,0-7.798-3.325-7.798-8.202v-1.661v-33.365c0-4.322,0.115-5.319,1.047-6.873
			c1.513-2.546,3.841-3.877,6.634-3.877c3.143,0,5.586,1.551,7.1,4.322C224.326,564.816,228.516,563.152,232.706,563.152z"/>
		<path fill="#E6624A" d="M260.981,551.402c0,4.879-4.191,8.868-9.427,8.868c-5.004,0-9.311-3.989-9.311-8.646
			c0-5.099,4.189-8.979,9.543-8.979C256.907,542.646,260.981,546.526,260.981,551.402z M259.584,607.601v1.661
			c-0.117,4.989-3.143,8.202-7.682,8.202c-4.655,0-7.797-3.325-7.797-8.202v-1.661v-34.252v-1.66
			c0.116-4.989,3.142-8.203,7.681-8.203c4.655,0,7.798,3.325,7.798,8.203v1.66V607.601z"/>
		<path fill="#E6624A" d="M270.172,556.389v-1.661c0.116-5.099,3.142-8.201,7.797-8.201c4.539,0,7.681,3.323,7.681,8.201v1.661
			v7.873h1.746h1.629c4.655,0.108,7.681,2.658,7.681,6.65c0,3.877-3.141,6.649-7.681,6.649h-1.629h-1.746v30.039v1.661
			c-0.116,4.989-3.143,8.202-7.797,8.202c-4.539,0-7.681-3.325-7.681-8.202v-1.661v-30.039c-0.35,0-0.582,0-0.816,0
			c-5.004,0-8.03-2.55-8.03-6.649c0-4.436,3.143-6.763,8.846-6.65V556.389z"/>
		<path fill="#E6624A" d="M314.627,551.402c0,4.879-4.19,8.868-9.427,8.868c-5.004,0-9.311-3.989-9.311-8.646
			c0-5.099,4.189-8.979,9.543-8.979C310.553,542.646,314.627,546.526,314.627,551.402z M313.231,607.601v1.661
			c-0.117,4.989-3.144,8.202-7.682,8.202c-4.655,0-7.798-3.325-7.798-8.202v-1.661v-34.252v-1.66
			c0.116-4.989,3.143-8.203,7.681-8.203c4.655,0,7.799,3.325,7.799,8.203v1.66V607.601z"/>
		<path fill="#E6624A" d="M359.314,552.623v-1.662c0.116-4.991,3.143-8.204,7.682-8.204c4.655,0,7.798,3.325,7.798,8.204v1.662
			v55.198c0,3.546-0.232,4.986-1.165,6.43c-1.164,2.103-3.491,3.213-6.284,3.213c-3.724,0-5.936-1.662-7.333-5.32
			c-5.004,4.1-9.426,5.651-15.827,5.651c-15.48,0-26.885-11.638-26.885-27.377c0-15.516,11.405-27.266,26.535-27.266
			c6.052,0,10.708,1.553,15.479,5.097V552.623z M333.478,590.308c0,6.981,5.819,12.637,13.151,12.637
			c7.216,0,13.036-5.655,13.036-12.526c0-6.872-5.936-12.414-13.036-12.414C339.413,578.004,333.478,583.546,333.478,590.308z"/>
		<path fill="#E6624A" d="M420.76,573.461c0,3.435-3.26,6.538-6.983,6.538c-1.979,0-3.725-0.554-6.634-2.217
			c-3.726-1.993-4.772-2.55-6.402-2.55c-1.629,0-2.909,1.221-2.909,2.55c0,2.439,2.211,3.657,9.311,5.433
			c5.238,1.33,7.564,2.104,10.01,3.324c4.771,2.549,7.562,7.316,7.562,12.856c0,10.864-9.193,18.399-22.345,18.399
			c-12.104,0-23.276-6.981-23.276-14.52c0-3.988,3.258-7.537,7.1-7.537c2.561,0,5.005,1.22,8.146,3.77
			c4.54,3.768,6.169,4.545,9.193,4.545c3.026,0,5.355-1.664,5.355-3.879c0-1.885-1.514-2.992-5.122-3.77
			c-4.305-0.997-10.125-2.881-13.383-4.322c-5.122-2.44-8.495-7.65-8.495-13.08c0-6.207,4.306-11.971,10.939-14.52
			c2.444-0.887,5.586-1.44,9.427-1.44C412.146,563.042,420.76,567.918,420.76,573.461z"/>
		<path fill="#E6624A" d="M446.126,607.601v1.661c-0.114,4.989-3.142,8.202-7.798,8.202c-4.653,0-7.681-3.325-7.681-8.202v-1.661
			v-30.039c-5.471-0.333-8.263-2.55-8.263-6.649c0-3.992,3.141-6.65,7.799-6.65c0,0,0.23,0,0.464,0v-1.33
			c0.118-6.873,0.581-9.422,2.096-12.193c2.793-5.1,7.914-7.981,14.548-7.981c8.031,0,14.665,4.656,14.665,10.42
			c0,4.1-3.261,7.536-7.102,7.536c-1.163,0-2.327-0.331-3.259-0.773l-1.628-0.889c-0.466-0.221-0.931-0.332-1.28-0.332
			c-1.166,0-2.329,1.221-2.443,2.77c-0.118,0.666-0.118,1-0.118,2.773h2.795h1.513c4.771,0.108,7.797,2.658,7.797,6.65
			c0,3.877-3.144,6.649-7.797,6.649h-1.513h-2.795V607.601z"/>
		<path fill="#E6624A" d="M473.007,617.687c-10.823,0-19.204-8.312-19.204-18.954c0-10.973,8.846-19.397,20.252-19.397
			c3.842,0,7.332,0.997,11.521,3.104c0-5.431-1.979-7.427-6.866-7.427c-1.048,0-2.792,0.221-4.192,0.557l-3.724,0.995
			c-2.21,0.665-3.489,0.886-4.771,0.886c-3.606,0-6.051-2.438-6.051-5.874c0-5.763,7.564-9.533,18.506-9.533
			c7.561,0,14.198,2.107,18.153,5.876c3.491,3.438,4.888,8.425,4.772,16.957v3.881v16.848v1.997c0,3.767-0.348,5.207-1.744,6.981
			c-1.516,1.885-3.726,2.882-6.286,2.882c-3.259,0-5.47-1.331-7.216-4.546C481.619,616.243,477.662,617.687,473.007,617.687z
			 M477.896,590.639c-4.188,0-7.568,3.326-7.568,7.43c0,4.212,3.38,7.425,7.8,7.425c4.306,0,7.448-3.104,7.448-7.204
			C485.576,593.965,482.316,590.639,477.896,590.639z"/>
		<path fill="#E6624A" d="M540.04,563.152c15.127,0,26.535,11.75,26.535,27.266c0,15.739-11.408,27.377-26.887,27.377
			c-6.401,0-10.823-1.552-15.826-5.651c-1.282,3.658-3.608,5.32-7.334,5.32c-2.792,0-5.237-1.221-6.282-3.213
			c-0.934-1.554-1.166-2.884-1.166-6.43v-55.198v-1.662c0.118-4.991,3.144-8.204,7.798-8.204c4.539,0,7.68,3.325,7.68,8.204v1.662
			v15.626C529.33,564.705,533.986,563.152,540.04,563.152z M524.21,590.418c0,6.984,5.819,12.526,13.034,12.526
			c7.332,0,13.152-5.655,13.152-12.637c0-6.762-5.936-12.304-13.152-12.304C530.146,578.004,524.21,583.546,524.21,590.418z"/>
		<path fill="#E6624A" d="M597.642,563.152c5.468,0,10.009,4.1,10.009,9.09c0,4.876-4.191,8.756-9.312,8.756
			c-2.21,0-2.56-0.223-5.587-1.886c-1.166-0.664-2.096-0.998-3.024-0.998c-2.445,0-3.377,1.885-3.377,6.761v22.726v1.661
			c-0.116,4.989-3.026,8.202-7.678,8.202c-4.658,0-7.801-3.325-7.801-8.202v-1.661v-33.365c0-4.322,0.116-5.319,1.047-6.873
			c1.514-2.546,3.84-3.877,6.635-3.877c3.144,0,5.586,1.551,7.1,4.322C589.261,564.816,593.451,563.152,597.642,563.152z"/>
		<path fill="#E6624A" d="M625.914,551.402c0,4.879-4.188,8.868-9.424,8.868c-5.004,0-9.312-3.989-9.312-8.646
			c0-5.099,4.19-8.979,9.545-8.979C621.842,542.646,625.914,546.526,625.914,551.402z M624.519,607.601v1.661
			c-0.117,4.989-3.142,8.202-7.683,8.202c-4.653,0-7.797-3.325-7.797-8.202v-1.661v-34.252v-1.66
			c0.119-4.989,3.144-8.203,7.685-8.203c4.653,0,7.795,3.325,7.795,8.203v1.66V607.601z"/>
		<path fill="#E6624A" d="M666.996,566.256l1.278-1.106c1.979-1.331,4.074-2.107,5.938-2.107c3.955,0,7.562,3.547,7.562,7.535
			c0,2.549-1.276,4.769-3.955,6.541l-1.397,0.996l-14.78,10.198l15.827,14.52c3.375,3.104,4.306,4.656,4.306,7.097
			c0,4.21-3.606,7.646-8.144,7.646c-1.981,0-4.192-1.107-6.172-2.992l-1.162-1.221l-18.387-18.51v12.749v1.661
			c-0.117,4.989-3.029,8.202-7.683,8.202c-4.656,0-7.8-3.325-7.8-8.202v-1.661v-54.978v-1.662c0.119-4.991,3.144-8.204,7.8-8.204
			c4.653,0,7.683,3.325,7.683,8.204v1.662v27.932L666.996,566.256z"/>
		<path fill="#E6624A" d="M719.014,566.256l1.279-1.106c1.978-1.331,4.073-2.107,5.937-2.107c3.954,0,7.565,3.547,7.565,7.535
			c0,2.549-1.281,4.769-3.959,6.541l-1.396,0.996l-14.781,10.198l15.83,14.52c3.373,3.104,4.306,4.656,4.306,7.097
			c0,4.21-3.611,7.646-8.147,7.646c-1.979,0-4.19-1.107-6.168-2.992l-1.164-1.221l-18.39-18.51v12.749v1.661
			c-0.117,4.989-3.024,8.202-7.68,8.202c-4.656,0-7.8-3.325-7.8-8.202v-1.661v-54.978v-1.662c0.117-4.991,3.144-8.204,7.8-8.204
			c4.655,0,7.68,3.325,7.68,8.204v1.662v27.932L719.014,566.256z"/>
		<path fill="#E6624A" d="M760.321,602.611c3.142,0,5.817-0.887,8.959-3.104c1.864-1.329,3.144-1.772,4.89-1.772
			c4.424,0,7.797,3.213,7.797,7.315c0,3.102-1.744,5.542-5.82,8.201c-4.303,2.881-10.239,4.543-15.825,4.543
			c-15.597,0-28.865-12.634-28.865-27.487c0-14.739,13.037-27.155,28.397-27.155c12.57,0,24.324,8.757,24.324,18.4
			c0,3.213-1.746,5.209-6.399,7.203l-25.836,10.862C754.501,601.725,756.946,602.611,760.321,602.611z M760.321,577.562
			c-6.75,0-12.336,4.877-12.918,11.194l19.784-8.091C765.674,578.448,763.463,577.562,760.321,577.562z"/>
		<path fill="#E6624A" d="M821.766,590.639c0-4.431-0.233-5.764-1.047-7.646c-1.396-2.993-4.89-5.098-8.498-5.098
			c-5.353,0-9.427,4.212-9.427,9.531v2.77v17.405v1.661c-0.114,4.989-3.142,8.202-7.797,8.202c-4.541,0-7.683-3.325-7.683-8.202
			v-1.661v-18.733c0-7.204,1.632-12.192,5.472-16.848c4.655-5.543,11.871-8.867,19.319-8.867c8.613,0,17.109,4.543,21.765,11.75
			c2.211,3.436,3.375,8.533,3.375,14.408v18.29v1.661c-0.117,4.989-3.144,8.202-7.683,8.202c-4.655,0-7.797-3.325-7.797-8.202
			v-1.661V590.639z"/>
	</g>
	<path opacity="0.6" fill-rule="evenodd" clip-rule="evenodd" fill="#E6624A" d="M312.639,512.692
		c0.037-5.13-4.167-9.411-9.28-9.454c-5.082-0.043-9.384,4.225-9.417,9.342c-0.037,5.109,4.172,9.375,9.298,9.432
		C308.348,522.063,312.606,517.844,312.639,512.692z"/>
	<path fill-rule="evenodd" clip-rule="evenodd" fill="#E6624A" d="M315.667,532.927c0.019-2.614-2.124-4.799-4.731-4.82
		c-2.588-0.02-4.782,2.157-4.8,4.763c-0.019,2.608,2.127,4.782,4.741,4.809C313.479,537.705,315.65,535.553,315.667,532.927z"/>
	<path opacity="0.7" fill-rule="evenodd" clip-rule="evenodd" fill="#00AAE5" d="M323.471,497.747
		c0.021-3.083-2.504-5.655-5.579-5.684c-3.054-0.024-5.64,2.54-5.66,5.618c-0.024,3.07,2.508,5.636,5.589,5.667
		C320.892,503.382,323.45,500.846,323.471,497.747z"/>
	<g>
		<path fill="#00AAE5" d="M408.291,361.871c6.178,10.448,12.08,21.051,18.224,31.514c7.649,13.017,18.731,20.387,33.479,22.187
			l29.975,1.934c0.49-0.188,1.006-0.307,1.551-0.284l15.328,0.471c9.517-0.285,19.041-0.662,28.556-0.573
			c14.196,0.124,25.6-5.898,34.243-17.37c8.872-11.782,17.033-24.16,25.659-36.168c3.565-4.959,7.327-9.773,11.243-14.427
			c-19.765-33.269-56.042-55.578-97.547-55.578c-45.409,0-84.563,26.7-102.675,65.245
			C406.984,359.835,407.676,360.834,408.291,361.871z"/>
		<path fill-rule="evenodd" clip-rule="evenodd" fill="#FFFFFF" d="M454.906,407.109c12.715,1.453,24.373-7.802,25.646-20.346
			c1.307-12.708-7.961-24.281-20.486-25.621c-12.715-1.366-24.144,7.759-25.594,20.445
			C433.021,394.321,442.104,405.648,454.906,407.109z"/>
		<g>
			<path fill="#E7624B" d="M423.314,428.73c1.854-5.189,1.858-9.922-1.247-14.975c-7.579-12.338-14.943-24.799-22.281-37.283
				c-2.707,9.708-4.185,19.928-4.185,30.5c0,18.484,4.451,35.918,12.296,51.338C414.291,449.102,419.518,439.301,423.314,428.73z"/>
			<path fill="#E6624A" d="M500.62,517.517l14.529-40.253c1.278-3.977,2.542-7.959,3.834-11.926
				c2.148-6.584,4.428-13.11,6.734-19.622c3.1-8.814,0.673-14.198-8.106-15.87l-26.422-0.826c-0.611-0.016-1.186-0.187-1.712-0.457
				c-0.159,0.046-0.322,0.072-0.48,0.124c-0.01-0.03-0.024-0.07-0.028-0.103c-0.015-0.042-0.027-0.082-0.039-0.12l-15.969-1.033
				c-0.914,0.132-1.823,0.331-2.708,0.565c-5.208,1.349-7.431,4.48-6.241,9.746c1.645,7.312,3.342,14.618,5.037,21.92l12.285,41.008
				c0.881,2.929-0.786,6.004-3.713,6.879c-2.611,0.784-5.342-0.476-6.518-2.837c-0.342-0.52-0.656-1.111-0.936-1.829
				c-1.717-4.428-2.824-9.082-4.584-13.486c-3.546-8.912-6.416-18.271-11.243-26.461c-8.399-14.252-22.863-14.99-33.922-2.629
				c-2.355,2.625-4.437,5.484-6.604,8.272c18.762,28.923,50.327,48.745,86.681,51.442
				C500.327,519.193,500.34,518.337,500.62,517.517z"/>
			<path fill="#E6624A" d="M614.495,365.38c-12.906,18.453-25.821,36.925-38.96,55.216c-3.461,4.821-4.222,9.712-3.046,15.391
				c2.864,13.712,8.044,26.448,14.223,38.773c1.104,2.219,2.35,4.402,3.115,6.754c1.311,4.019-0.312,6.629-4.219,7.406
				c-3.357,0.672-5.463-0.879-7.29-3.809c-3.291-5.287-6.402-10.877-10.511-15.393c-8.461-9.309-20.947-9.607-29.546-0.424
				c-4.845,5.17-8.95,11.435-12.177,17.885c-5.235,10.414-9.498,21.378-14.188,32.114l-0.346,1.016
				c61.446-1.358,110.854-51.562,110.854-113.337C622.404,392.285,619.579,378.261,614.495,365.38z"/>
		</g>
		<path fill-rule="evenodd" clip-rule="evenodd" fill="#FFFFFF" d="M533.819,407.051c15.1,1.727,28.948-9.268,30.46-24.164
			c1.55-15.094-9.454-28.837-24.333-30.432c-15.101-1.617-28.674,9.219-30.396,24.287
			C507.823,391.859,518.615,405.316,533.819,407.051z"/>
	</g>
	<path opacity="0.7" fill-rule="evenodd" clip-rule="evenodd" fill="#00AAE5" d="M234.039,529.311
		c-0.036-5.13,4.167-9.411,9.281-9.455c5.081-0.042,9.382,4.225,9.417,9.342c0.038,5.109-4.173,9.377-9.298,9.434
		C238.331,538.683,234.073,534.463,234.039,529.311z"/>
	<path fill-rule="evenodd" clip-rule="evenodd" fill="#00AAE5" d="M255.246,536.083c-0.018-2.613,2.124-4.799,4.731-4.82
		c2.588-0.021,4.782,2.156,4.8,4.762c0.018,2.607-2.127,4.782-4.74,4.809C257.435,540.861,255.263,538.709,255.246,536.083z"/>
	<path opacity="0.6" fill-rule="evenodd" clip-rule="evenodd" fill="#E6624A" d="M243.133,508.441
		c-0.02-3.083,2.505-5.657,5.579-5.684c3.055-0.024,5.64,2.54,5.66,5.615c0.024,3.073-2.507,5.637-5.589,5.669
		C245.713,514.076,243.155,511.541,243.133,508.441z"/>
	<path opacity="0.7" fill-rule="evenodd" clip-rule="evenodd" fill="#00AAE5" d="M618.059,530.693
		c0.037-4.833-3.925-8.865-8.743-8.91c-4.785-0.037-8.837,3.982-8.872,8.805c-0.037,4.812,3.933,8.833,8.76,8.885
		C614.015,539.522,618.026,535.544,618.059,530.693z"/>
	<path fill-rule="evenodd" clip-rule="evenodd" fill="#00AAE5" d="M629.973,515.21c0.021-3.084-2.503-5.657-5.58-5.686
		c-3.055-0.023-5.64,2.54-5.659,5.617c-0.021,3.073,2.51,5.637,5.588,5.669C627.394,520.843,629.953,518.307,629.973,515.21z"/>
</g>
</svg>
