<svg viewBox="0 0 680.07 375.58" xmlns="http://www.w3.org/2000/svg"><path opacity=".6" fill-rule="evenodd" clip-rule="evenodd" fill="#e6624a" d="M469.45 243.843c.013-2.291-1.863-4.205-4.149-4.225-2.268-.017-4.191 1.889-4.206 4.174-.018 2.284 1.862 4.188 4.153 4.213 2.283.024 4.184-1.86 4.202-4.162z"/><g fill="#e6624a"><path d="M17.807 279.108h19.9c5.004.11 8.263 2.885 8.263 7.093 0 4.104-3.375 6.985-8.263 6.985h-19.9v21.17c0 5.764-3.493 9.532-8.846 9.532S0 320.008 0 314.356v-55.31c.115-6.43 3.725-9.865 10.358-9.865h32.82c5.586.113 9.078 3.104 9.078 7.759s-3.608 7.76-9.078 7.76H17.807zm57.723-9.532c5.469 0 10.009 4.1 10.009 9.09 0 4.876-4.19 8.756-9.311 8.756-2.21 0-2.561-.223-5.586-1.886-1.163-.664-2.095-.998-3.025-.998-2.445 0-3.375 1.885-3.375 6.76v24.388c-.116 4.989-3.026 8.202-7.681 8.202-4.657 0-7.798-3.325-7.798-8.202V280.66c0-4.322.115-5.32 1.047-6.873 1.513-2.546 3.841-3.877 6.634-3.877 3.143 0 5.586 1.55 7.1 4.322 3.606-2.992 7.796-4.656 11.986-4.656zm28.275-11.75c0 4.879-4.191 8.868-9.427 8.868-5.004 0-9.311-3.99-9.311-8.646 0-5.1 4.189-8.98 9.543-8.98 5.121.002 9.195 3.882 9.195 8.758zm-1.397 56.199v1.66c-.117 4.99-3.143 8.203-7.682 8.203-4.655 0-7.797-3.325-7.797-8.202v-37.573c.116-4.99 3.142-8.203 7.681-8.203 4.655 0 7.798 3.325 7.798 8.203zm10.588-51.212v-1.661c.116-5.1 3.142-8.201 7.797-8.201 4.539 0 7.681 3.323 7.681 8.2v9.535h3.375c4.655.108 7.681 2.658 7.681 6.65 0 3.877-3.141 6.649-7.681 6.649h-3.375v31.7c-.116 4.989-3.143 8.202-7.797 8.202-4.539 0-7.681-3.325-7.681-8.202v-31.7h-.816c-5.004 0-8.03-2.55-8.03-6.65 0-4.435 3.143-6.762 8.846-6.65zm44.455-4.987c0 4.879-4.19 8.868-9.427 8.868-5.004 0-9.311-3.99-9.311-8.646 0-5.1 4.189-8.98 9.543-8.98 5.121.002 9.195 3.882 9.195 8.758zm-1.396 56.199v1.66c-.117 4.99-3.144 8.203-7.682 8.203-4.655 0-7.798-3.325-7.798-8.202v-37.573c.116-4.99 3.143-8.203 7.681-8.203 4.655 0 7.799 3.325 7.799 8.203zm46.083-54.978v-1.662c.116-4.991 3.143-8.204 7.682-8.204 4.655 0 7.798 3.325 7.798 8.204v56.86c0 3.546-.232 4.986-1.165 6.43-1.164 2.103-3.491 3.213-6.284 3.213-3.724 0-5.936-1.662-7.333-5.32-5.004 4.1-9.426 5.65-15.827 5.65-15.48 0-26.885-11.637-26.885-27.376 0-15.516 11.405-27.266 26.535-27.266 6.052 0 10.708 1.553 15.479 5.097zm-25.836 37.685c0 6.98 5.819 12.637 13.151 12.637 7.216 0 13.036-5.655 13.036-12.526 0-6.872-5.936-12.414-13.036-12.414-7.216-.001-13.151 5.54-13.151 12.303zm87.282-16.847c0 3.435-3.26 6.538-6.983 6.538-1.979 0-3.725-.554-6.634-2.217-3.726-1.993-4.772-2.55-6.402-2.55-1.629 0-2.909 1.22-2.909 2.55 0 2.439 2.211 3.657 9.311 5.433 5.238 1.33 7.564 2.104 10.01 3.324 4.771 2.549 7.562 7.316 7.562 12.856 0 10.864-9.193 18.399-22.345 18.399-12.104 0-23.276-6.981-23.276-14.52 0-3.988 3.258-7.537 7.1-7.537 2.561 0 5.005 1.22 8.146 3.77 4.54 3.768 6.169 4.545 9.193 4.545 3.026 0 5.355-1.664 5.355-3.88 0-1.884-1.514-2.991-5.122-3.77-4.305-.996-10.125-2.88-13.383-4.321-5.122-2.44-8.495-7.65-8.495-13.08 0-6.207 4.306-11.971 10.939-14.52 2.444-.887 5.586-1.44 9.427-1.44 9.892 0 18.506 4.877 18.506 10.42zm25.366 34.14v1.66c-.114 4.99-3.142 8.203-7.798 8.203-4.653 0-7.681-3.325-7.681-8.202v-31.7c-5.471-.333-8.263-2.55-8.263-6.65 0-3.991 3.141-6.65 7.799-6.65h.464v-1.33c.118-6.872.581-9.421 2.096-12.192 2.793-5.1 7.914-7.981 14.548-7.981 8.031 0 14.665 4.656 14.665 10.42 0 4.1-3.261 7.536-7.102 7.536-1.163 0-2.327-.331-3.259-.773l-1.628-.89c-.466-.22-.931-.331-1.28-.331-1.166 0-2.329 1.22-2.443 2.77-.118.666-.118 1-.118 2.773h4.308c4.771.108 7.797 2.658 7.797 6.65 0 3.877-3.144 6.649-7.797 6.649h-4.308zm26.881 10.086c-10.823 0-19.204-8.312-19.204-18.954 0-10.973 8.846-19.397 20.252-19.397 3.842 0 7.332.997 11.521 3.104 0-5.431-1.979-7.427-6.866-7.427-1.048 0-2.792.22-4.192.557l-3.724.995c-2.21.665-3.489.886-4.771.886-3.606 0-6.051-2.438-6.051-5.874 0-5.763 7.564-9.533 18.506-9.533 7.561 0 14.198 2.107 18.153 5.876 3.491 3.438 4.888 8.425 4.772 16.957v22.726c0 3.767-.348 5.207-1.744 6.98-1.516 1.886-3.726 2.883-6.286 2.883-3.259 0-5.47-1.331-7.216-4.546-4.538 3.323-8.495 4.767-13.15 4.767zm4.889-27.048c-4.188 0-7.568 3.326-7.568 7.43 0 4.212 3.38 7.425 7.8 7.425 4.306 0 7.448-3.104 7.448-7.204 0-4.325-3.26-7.651-7.68-7.651zm62.144-27.487c15.127 0 26.535 11.75 26.535 27.266 0 15.739-11.408 27.377-26.887 27.377-6.401 0-10.823-1.552-15.826-5.651-1.282 3.658-3.608 5.32-7.334 5.32-2.792 0-5.237-1.221-6.282-3.213-.934-1.554-1.166-2.884-1.166-6.43v-56.86c.118-4.991 3.144-8.204 7.798-8.204 4.539 0 7.68 3.325 7.68 8.204v17.288c4.772-3.544 9.428-5.097 15.482-5.097zm-15.83 27.266c0 6.984 5.819 12.526 13.034 12.526 7.332 0 13.152-5.655 13.152-12.637 0-6.762-5.936-12.304-13.152-12.304-7.098 0-13.034 5.543-13.034 12.415zm73.432-27.266c5.468 0 10.009 4.1 10.009 9.09 0 4.876-4.191 8.756-9.312 8.756-2.21 0-2.56-.223-5.587-1.886-1.166-.664-2.096-.998-3.024-.998-2.445 0-3.377 1.885-3.377 6.76v24.388c-.116 4.989-3.026 8.202-7.678 8.202-4.658 0-7.801-3.325-7.801-8.202V280.66c0-4.322.116-5.32 1.047-6.873 1.514-2.546 3.84-3.877 6.635-3.877 3.144 0 5.586 1.55 7.1 4.322 3.607-2.992 7.797-4.656 11.988-4.656zm28.272-11.75c0 4.879-4.188 8.868-9.424 8.868-5.004 0-9.312-3.99-9.312-8.646 0-5.1 4.19-8.98 9.545-8.98 5.119.002 9.191 3.882 9.191 8.758zm-1.395 56.199v1.66c-.117 4.99-3.142 8.203-7.683 8.203-4.653 0-7.797-3.325-7.797-8.202v-37.573c.119-4.99 3.144-8.203 7.685-8.203 4.653 0 7.795 3.325 7.795 8.203zm42.477-41.345l1.278-1.106c1.979-1.331 4.074-2.107 5.938-2.107 3.955 0 7.562 3.547 7.562 7.535 0 2.549-1.276 4.769-3.955 6.54l-1.397.997-14.78 10.198 15.827 14.52c3.375 3.104 4.306 4.656 4.306 7.097 0 4.21-3.606 7.646-8.144 7.646-1.981 0-4.192-1.107-6.172-2.992l-1.162-1.221-18.387-18.51v14.41c-.117 4.989-3.029 8.202-7.683 8.202-4.656 0-7.8-3.325-7.8-8.202v-58.301c.119-4.991 3.144-8.204 7.8-8.204 4.653 0 7.683 3.325 7.683 8.204v29.594zm52.018 0l1.279-1.106c1.978-1.331 4.073-2.107 5.937-2.107 3.954 0 7.565 3.547 7.565 7.535 0 2.549-1.281 4.769-3.959 6.54l-1.396.997-14.781 10.198 15.83 14.52c3.373 3.104 4.306 4.656 4.306 7.097 0 4.21-3.611 7.646-8.147 7.646-1.979 0-4.19-1.107-6.168-2.992l-1.164-1.221-18.39-18.51v14.41c-.117 4.989-3.024 8.202-7.68 8.202s-7.8-3.325-7.8-8.202v-58.301c.117-4.991 3.144-8.204 7.8-8.204 4.655 0 7.68 3.325 7.68 8.204v29.594z"/><path d="M603.145 309.035c3.142 0 5.817-.887 8.959-3.104 1.864-1.33 3.144-1.772 4.89-1.772 4.424 0 7.797 3.213 7.797 7.315 0 3.102-1.744 5.542-5.82 8.2-4.303 2.882-10.239 4.544-15.825 4.544-15.597 0-28.865-12.634-28.865-27.487 0-14.74 13.037-27.155 28.397-27.155 12.57 0 24.324 8.757 24.324 18.4 0 3.213-1.746 5.209-6.399 7.203l-25.836 10.862c2.558 2.108 5.003 2.994 8.378 2.994zm0-25.05c-6.75 0-12.336 4.878-12.918 11.195l19.784-8.091c-1.513-2.217-3.724-3.103-6.866-3.103zm61.445 13.078c0-4.431-.233-5.764-1.047-7.646-1.396-2.993-4.89-5.098-8.498-5.098-5.353 0-9.427 4.212-9.427 9.53v21.837c-.114 4.989-3.142 8.202-7.797 8.202-4.541 0-7.683-3.325-7.683-8.202v-20.394c0-7.204 1.632-12.192 5.472-16.848 4.655-5.543 11.871-8.867 19.319-8.867 8.613 0 17.109 4.543 21.765 11.75 2.211 3.436 3.375 8.533 3.375 14.408v19.95c-.117 4.99-3.144 8.203-7.683 8.203-4.655 0-7.797-3.325-7.797-8.202v-18.623z"/></g><path opacity=".6" fill-rule="evenodd" clip-rule="evenodd" fill="#e6624a" d="M155.463 219.116c.037-5.13-4.167-9.411-9.28-9.454-5.082-.043-9.384 4.225-9.417 9.342-.037 5.109 4.172 9.375 9.298 9.432 5.108.05 9.366-4.168 9.399-9.32z"/><path fill-rule="evenodd" clip-rule="evenodd" fill="#e6624a" d="M158.491 239.35c.019-2.613-2.124-4.798-4.731-4.82-2.588-.02-4.782 2.158-4.8 4.764-.019 2.608 2.127 4.782 4.741 4.809 2.602.026 4.773-2.126 4.79-4.752z"/><path opacity=".7" fill-rule="evenodd" clip-rule="evenodd" fill="#00aae5" d="M166.295 204.17c.021-3.082-2.504-5.654-5.579-5.683-3.054-.024-5.64 2.54-5.66 5.618-.024 3.07 2.508 5.636 5.589 5.667 3.071.034 5.629-2.502 5.65-5.601z"/><path d="M153.378 368.112h-2.974l-8.283-25.205h3.965l5.806 18.338 5.806-18.338h4.035zm11.117-21.49V342.8h3.823v3.823zm.106 21.49v-17.948h3.611v17.948zm22.304 0c-3.434 0-4.921-2.301-4.921-4.956v-20.25h3.611v20.038c0 1.38.496 2.088 1.947 2.088h1.593v3.08zm15.683 0v-1.63c-1.31 1.312-2.549 1.843-4.779 1.843s-3.717-.531-4.814-1.63c-.921-.955-1.416-2.335-1.416-3.857 0-3.01 2.088-5.17 6.195-5.17h4.744v-1.273c0-2.266-1.133-3.362-3.93-3.362-1.982 0-2.938.46-3.929 1.734l-2.372-2.23c1.699-1.982 3.469-2.584 6.442-2.584 4.921 0 7.399 2.088 7.399 6.159v12h-3.54zm-.071-7.93h-4.213c-2.124 0-3.221.956-3.221 2.584 0 1.629 1.027 2.549 3.292 2.549 1.38 0 2.407-.105 3.363-1.026.531-.531.779-1.381.779-2.655zm15.012 15.399c-2.726 0-4.461-.638-6.337-2.372l2.301-2.301c1.133 1.062 2.124 1.593 3.895 1.593 3.044 0 4.212-2.16 4.212-4.566v-2.302c-1.31 1.559-2.796 2.054-4.637 2.054-1.806 0-3.292-.602-4.284-1.593-1.735-1.734-2.018-4.248-2.018-7.293 0-3.044.283-5.558 2.018-7.292.991-.991 2.513-1.558 4.319-1.558 1.912 0 3.363.495 4.708 2.124v-1.912h3.505v17.842c0 4.39-2.903 7.576-7.682 7.576zm.425-22.41c-3.257 0-3.682 2.798-3.682 5.63s.425 5.629 3.682 5.629 3.646-2.797 3.646-5.63c0-2.831-.389-5.628-3.646-5.628zm15.472 7.01c0 3.08 1.628 5.028 4.566 5.028 2.018 0 3.08-.566 4.354-1.842l2.301 2.16c-1.841 1.84-3.575 2.797-6.726 2.797-4.496 0-8.071-2.372-8.071-9.205 0-5.805 3.009-9.168 7.611-9.168 4.814 0 7.611 3.54 7.611 8.638v1.593zm7.575-4.955c-.566-1.345-1.841-2.266-3.54-2.266s-3.009.92-3.576 2.266c-.354.814-.425 1.345-.46 2.442h8.071c-.034-1.098-.141-1.628-.495-2.442zm18.552-.85c-.814-.814-1.451-1.204-2.69-1.204-1.947 0-3.575 1.559-3.575 4.036v10.903h-3.611v-17.948h3.54v1.947c.921-1.274 2.762-2.16 4.779-2.16 1.734 0 3.044.46 4.283 1.7zm17.985-1.133v14.868h-3.611v-14.868h-2.053v-2.761h2.053v-2.762c0-2.584 1.558-4.991 4.921-4.991h2.266v3.079h-1.593c-1.346 0-1.982.779-1.982 2.089v2.585h3.575v2.76zm7.152-6.62V342.8h3.823v3.823zm.106 21.489v-17.948h3.611v17.948zm20.108 0v-10.938c0-2.797-1.593-4.001-3.611-4.001-2.018 0-3.717 1.239-3.717 4v10.939h-3.611v-17.948h3.54v1.806c1.239-1.346 2.974-2.018 4.779-2.018 1.841 0 3.363.602 4.425 1.628 1.381 1.346 1.806 3.045 1.806 5.062v11.47zm21.49-14.87v14.869h-3.611v-14.868h-2.053v-2.761h2.053v-2.762c0-2.584 1.558-4.991 4.921-4.991h2.266v3.079h-1.593c-1.346 0-1.982.779-1.982 2.089v2.585h3.575v2.76zm17.135 1.134c-.814-.814-1.452-1.204-2.691-1.204-1.946 0-3.575 1.559-3.575 4.036v10.903h-3.61v-17.948h3.54v1.947c.92-1.274 2.761-2.16 4.778-2.16 1.735 0 3.045.46 4.284 1.7zm5.383-7.753V342.8h3.822v3.823zm.105 21.489v-17.948h3.611v17.948zm14.516 0c-3.363 0-4.921-2.407-4.921-4.991v-9.877h-2.053v-2.761h2.053v-5.452h3.611v5.452h3.469v2.76h-3.469v9.7c0 1.31.637 2.089 1.982 2.089h1.486v3.08zm6.479-21.49V342.8h3.824v3.823zm.106 21.49v-17.948h3.611v17.948zm19.472 0V366.2c-1.346 1.629-2.797 2.125-4.744 2.125-1.805 0-3.398-.603-4.389-1.594-1.806-1.805-2.019-4.885-2.019-7.611s.213-5.77 2.019-7.575c.99-.991 2.549-1.593 4.354-1.593 1.912 0 3.398.46 4.709 2.018v-9.062h3.61v25.205h-3.54zm-3.788-14.94c-3.257 0-3.752 2.762-3.752 5.947 0 3.187.495 5.983 3.752 5.983 3.257 0 3.718-2.797 3.718-5.983-.001-3.185-.462-5.947-3.718-5.947zm27.013 15.152c-2.938 0-5.416-.496-7.54-2.585l2.372-2.372c1.451 1.487 3.398 1.877 5.168 1.877 2.195 0 3.93-.78 3.93-2.48 0-1.202-.673-1.981-2.407-2.123l-2.867-.247c-3.363-.283-5.311-1.806-5.311-4.957 0-3.504 3.01-5.486 6.762-5.486 2.69 0 4.991.566 6.655 2.018l-2.266 2.3c-1.133-.954-2.726-1.31-4.425-1.31-2.16 0-3.257.957-3.257 2.302 0 1.062.566 1.876 2.478 2.054l2.832.248c3.363.283 5.346 1.876 5.346 5.062 0 3.752-3.186 5.699-7.47 5.699zm21.347-.212v-1.63c-1.31 1.312-2.549 1.843-4.778 1.843-2.23 0-3.718-.531-4.814-1.63-.921-.955-1.416-2.335-1.416-3.857 0-3.01 2.089-5.17 6.194-5.17h4.744v-1.273c0-2.266-1.133-3.362-3.93-3.362-1.982 0-2.938.46-3.93 1.734l-2.371-2.23c1.699-1.982 3.469-2.584 6.442-2.584 4.921 0 7.399 2.088 7.399 6.159v12h-3.54zm-.07-7.93h-4.213c-2.124 0-3.221.956-3.221 2.584 0 1.629 1.026 2.549 3.292 2.549 1.38 0 2.407-.105 3.362-1.026.531-.531.779-1.381.779-2.655v-1.452zm30.871 7.93v-10.938c0-2.797-1.594-4.001-3.611-4.001-1.947 0-3.717 1.239-3.717 3.824v11.115h-3.611v-10.938c0-2.797-1.593-4.001-3.61-4.001s-3.717 1.239-3.717 4v10.939h-3.611v-17.948h3.54v1.806c1.204-1.31 2.974-2.018 4.779-2.018 2.23 0 3.965.885 5.098 2.619 1.451-1.77 3.257-2.62 5.629-2.62 1.841 0 3.469.603 4.531 1.629 1.381 1.346 1.911 3.045 1.911 5.062v11.47zm30.873 0v-10.938c0-2.797-1.594-4.001-3.611-4.001-1.947 0-3.717 1.239-3.717 3.824v11.115h-3.611v-10.938c0-2.797-1.593-4.001-3.61-4.001s-3.717 1.239-3.717 4v10.939h-3.611v-17.948h3.54v1.806c1.204-1.31 2.974-2.018 4.779-2.018 2.23 0 3.965.885 5.098 2.619 1.451-1.77 3.257-2.62 5.629-2.62 1.841 0 3.469.603 4.531 1.629 1.381 1.346 1.911 3.045 1.911 5.062v11.47zm11.65-7.93c0 3.08 1.629 5.027 4.566 5.027 2.018 0 3.08-.566 4.354-1.842l2.301 2.16c-1.841 1.84-3.575 2.797-6.726 2.797-4.496 0-8.071-2.372-8.071-9.205 0-5.805 3.009-9.168 7.61-9.168 4.814 0 7.611 3.54 7.611 8.638v1.593zm7.576-4.956c-.566-1.345-1.842-2.266-3.541-2.266-1.699 0-3.009.92-3.575 2.266-.354.814-.425 1.345-.46 2.442h8.071c-.035-1.098-.141-1.628-.495-2.442zm19.612 12.886v-10.938c0-2.797-1.593-4.001-3.61-4.001s-3.717 1.239-3.717 4v10.939h-3.611v-17.948h3.54v1.806c1.239-1.346 2.974-2.018 4.779-2.018 1.841 0 3.363.602 4.425 1.628 1.381 1.346 1.806 3.045 1.806 5.062v11.47z" fill="#616565"/><path d="M351.826 0c-45.41 0-84.564 26.701-102.676 65.246.657 1.013 1.35 2.012 1.965 3.049 6.178 10.448 12.08 21.05 18.225 31.514 7.649 13.017 18.73 20.387 33.478 22.187l29.975 1.934c.49-.188 1.006-.307 1.55-.284l15.329.471c9.517-.285 19.041-.663 28.556-.574 14.196.124 25.6-5.897 34.242-17.37 8.872-11.781 17.035-24.16 25.66-36.167a240.245 240.245 0 0111.243-14.428C429.608 22.31 393.33 0 351.826 0zm28.133 58.719c.93.006 1.866.059 2.81.16 14.88 1.595 25.884 15.338 24.334 30.432-1.512 14.896-15.36 25.89-30.46 24.164-15.205-1.735-25.995-15.192-24.268-30.309 1.614-14.126 13.643-24.534 27.584-24.447zm-79.436 8.713c.783.005 1.573.049 2.367.134 12.525 1.34 21.794 12.914 20.487 25.622-1.273 12.543-12.932 21.798-25.647 20.345-12.802-1.46-21.884-12.787-20.433-25.521 1.359-11.893 11.488-20.657 23.226-20.58z" fill="#00aae5"/><path fill="#e7624b" d="M266.138 135.154c1.854-5.19 1.858-9.922-1.247-14.975-7.579-12.338-14.943-24.8-22.281-37.283a113.365 113.365 0 00-4.185 30.5c0 18.484 4.451 35.918 12.296 51.338 6.394-9.208 11.621-19.01 15.417-29.58z"/><path fill="#e6624a" d="M343.444 223.94l14.529-40.252c1.278-3.977 2.542-7.96 3.834-11.926 2.148-6.584 4.428-13.11 6.734-19.622 3.1-8.814.673-14.198-8.106-15.87l-26.422-.826a3.965 3.965 0 01-1.712-.457c-.159.046-.322.072-.48.124-.01-.03-.024-.07-.028-.103-.015-.042-.027-.082-.039-.12l-15.969-1.033c-.914.132-1.823.33-2.708.565-5.208 1.349-7.431 4.48-6.241 9.746 1.645 7.312 3.342 14.618 5.037 21.92l12.285 41.008a5.52 5.52 0 01-3.713 6.879c-2.611.784-5.342-.476-6.518-2.837a9.677 9.677 0 01-.936-1.83c-1.717-4.427-2.824-9.081-4.584-13.485-3.546-8.912-6.416-18.271-11.243-26.461-8.399-14.252-22.863-14.99-33.922-2.63-2.355 2.626-4.437 5.485-6.604 8.273 18.762 28.923 50.327 48.745 86.681 51.442-.168-.828-.155-1.684.125-2.504zM457.319 71.805c-12.906 18.453-25.821 36.925-38.96 55.216-3.461 4.82-4.222 9.712-3.046 15.39 2.864 13.713 8.044 26.449 14.223 38.774 1.104 2.219 2.35 4.402 3.115 6.754 1.311 4.019-.312 6.629-4.219 7.406-3.357.672-5.463-.88-7.29-3.81-3.291-5.286-6.402-10.876-10.511-15.392-8.461-9.31-20.947-9.607-29.546-.424-4.845 5.17-8.95 11.435-12.177 17.885-5.235 10.414-9.498 21.378-14.188 32.114l-.346 1.016c61.446-1.358 110.854-51.562 110.854-113.337 0-14.687-2.825-28.711-7.909-41.592z"/><path opacity=".7" fill-rule="evenodd" clip-rule="evenodd" fill="#00aae5" d="M76.863 235.735c-.036-5.13 4.167-9.411 9.281-9.455 5.081-.042 9.382 4.225 9.417 9.342.038 5.109-4.173 9.377-9.298 9.434-5.108.05-9.366-4.17-9.4-9.321z"/><path fill-rule="evenodd" clip-rule="evenodd" fill="#00aae5" d="M98.07 242.507c-.018-2.613 2.124-4.8 4.731-4.82 2.588-.021 4.782 2.156 4.8 4.762.018 2.607-2.127 4.782-4.74 4.809-2.602.027-4.774-2.125-4.791-4.751z"/><path opacity=".6" fill-rule="evenodd" clip-rule="evenodd" fill="#e6624a" d="M85.957 214.865c-.02-3.083 2.505-5.657 5.579-5.684 3.055-.024 5.64 2.54 5.66 5.615.024 3.073-2.507 5.637-5.589 5.669-3.07.035-5.628-2.5-5.65-5.6z"/><path opacity=".7" fill-rule="evenodd" clip-rule="evenodd" fill="#00aae5" d="M460.883 237.117c.037-4.833-3.925-8.865-8.743-8.91-4.785-.037-8.837 3.982-8.872 8.805-.037 4.812 3.933 8.833 8.76 8.885 4.811.049 8.822-3.93 8.855-8.78z"/><path fill-rule="evenodd" clip-rule="evenodd" fill="#00aae5" d="M472.797 221.634c.021-3.084-2.503-5.657-5.58-5.686-3.055-.023-5.64 2.54-5.659 5.617-.021 3.073 2.51 5.637 5.588 5.669 3.072.033 5.631-2.503 5.651-5.6z"/></svg>