<svg width="226.803" height="226.734" xmlns="http://www.w3.org/2000/svg"><path d="M113.401 0C67.991 0 28.837 26.701 10.725 65.246c.657 1.013 1.35 2.012 1.965 3.049 6.178 10.448 12.08 21.05 18.225 31.514 7.649 13.017 18.73 20.387 33.478 22.187l29.975 1.934c.49-.188 1.006-.307 1.55-.284l15.329.471c9.517-.285 19.041-.663 28.556-.574 14.196.124 25.6-5.897 34.242-17.37 8.872-11.781 17.035-24.16 25.66-36.167a240.245 240.245 0 0111.243-14.428C191.183 22.31 154.905 0 113.401 0zm28.133 58.719c.93.006 1.866.059 2.81.16 14.88 1.595 25.884 15.338 24.334 30.432-1.512 14.896-15.36 25.89-30.46 24.164-15.205-1.735-25.995-15.192-24.268-30.309 1.614-14.126 13.643-24.534 27.584-24.447zm-79.436 8.713c.783.005 1.573.049 2.367.134 12.525 1.34 21.794 12.914 20.487 25.622-1.273 12.543-12.932 21.798-25.647 20.345-12.802-1.46-21.884-12.787-20.433-25.521 1.359-11.893 11.488-20.657 23.226-20.58z" fill="#00aae5"/><path fill="#e7624b" d="M27.713 135.154c1.854-5.19 1.858-9.922-1.247-14.975-7.579-12.338-14.943-24.8-22.281-37.283A113.365 113.365 0 000 113.396c0 18.484 4.451 35.918 12.296 51.338 6.394-9.208 11.621-19.01 15.417-29.58z"/><path fill="#e6624a" d="M105.019 223.94l14.529-40.252c1.278-3.977 2.542-7.96 3.834-11.926 2.148-6.584 4.428-13.11 6.734-19.622 3.1-8.814.673-14.198-8.106-15.87l-26.422-.826a3.965 3.965 0 01-1.712-.457c-.159.046-.322.072-.48.124-.01-.03-.024-.07-.028-.103-.015-.042-.027-.082-.039-.12l-15.969-1.033c-.914.132-1.823.33-2.708.565-5.208 1.349-7.431 4.48-6.241 9.746 1.645 7.312 3.342 14.618 5.037 21.92l12.285 41.008a5.52 5.52 0 01-3.713 6.879c-2.611.784-5.342-.476-6.518-2.837a9.677 9.677 0 01-.936-1.83c-1.717-4.427-2.824-9.081-4.584-13.485-3.546-8.912-6.416-18.271-11.243-26.461-8.399-14.252-22.863-14.99-33.922-2.63-2.355 2.626-4.437 5.485-6.604 8.273 18.762 28.923 50.327 48.745 86.681 51.442-.168-.828-.155-1.684.125-2.504zM218.894 71.805c-12.906 18.453-25.821 36.925-38.96 55.216-3.461 4.82-4.222 9.712-3.046 15.39 2.864 13.713 8.044 26.449 14.223 38.774 1.104 2.219 2.35 4.402 3.115 6.754 1.311 4.019-.312 6.629-4.219 7.406-3.357.672-5.463-.88-7.29-3.81-3.291-5.286-6.402-10.876-10.511-15.392-8.461-9.31-20.947-9.607-29.546-.424-4.845 5.17-8.95 11.435-12.177 17.885-5.235 10.414-9.498 21.378-14.188 32.114l-.346 1.016c61.446-1.358 110.854-51.562 110.854-113.337 0-14.687-2.825-28.711-7.909-41.592z"/></svg>