<?xml version="1.0" encoding="UTF-8" standalone="no"?>
<svg
   viewBox="0 0 1274.4473 226.73399"
   version="1.1"
   id="svg1196"
   sodipodi:docname="logo_wide.svg"
   width="1274.4473"
   height="226.73399"
   inkscape:version="1.1 (c4e8f9e, 2021-05-24)"
   xmlns:inkscape="http://www.inkscape.org/namespaces/inkscape"
   xmlns:sodipodi="http://sodipodi.sourceforge.net/DTD/sodipodi-0.dtd"
   xmlns="http://www.w3.org/2000/svg"
   xmlns:svg="http://www.w3.org/2000/svg">
  <defs
     id="defs1200" />
  <sodipodi:namedview
     id="namedview1198"
     pagecolor="#ffffff"
     bordercolor="#666666"
     borderopacity="1.0"
     inkscape:pageshadow="2"
     inkscape:pageopacity="0.0"
     inkscape:pagecheckerboard="0"
     showgrid="false"
     fit-margin-top="0"
     fit-margin-left="0"
     fit-margin-right="0"
     fit-margin-bottom="0"
     inkscape:zoom="0.34852878"
     inkscape:cx="657.04761"
     inkscape:cy="160.6754"
     inkscape:window-width="1280"
     inkscape:window-height="800"
     inkscape:window-x="0"
     inkscape:window-y="0"
     inkscape:window-maximized="0"
     inkscape:current-layer="svg1196" />
  <path
     opacity="0.6"
     fill-rule="evenodd"
     clip-rule="evenodd"
     fill="#e6624a"
     d="m 958.5188,103.10468 c 0.019,-3.436503 -2.7945,-6.307503 -6.2235,-6.337503 -3.402,-0.0255 -6.2865,2.8335 -6.309,6.261003 -0.027,3.426 2.793,6.282 6.2295,6.3195 3.4245,0.036 6.276,-2.79 6.303,-6.243 z"
     id="path1166"
     style="stroke-width:1.5" />
  <g
     fill="#e6624a"
     id="g1172"
     transform="matrix(1.5,0,0,1.5,254.34377,-262.65982)">
    <path
       d="m 17.807,279.108 h 19.9 c 5.004,0.11 8.263,2.885 8.263,7.093 0,4.104 -3.375,6.985 -8.263,6.985 h -19.9 v 21.17 c 0,5.764 -3.493,9.532 -8.846,9.532 -5.353,0 -8.961,-3.88 -8.961,-9.532 v -55.31 c 0.115,-6.43 3.725,-9.865 10.358,-9.865 h 32.82 c 5.586,0.113 9.078,3.104 9.078,7.759 0,4.655 -3.608,7.76 -9.078,7.76 H 17.807 Z m 57.723,-9.532 c 5.469,0 10.009,4.1 10.009,9.09 0,4.876 -4.19,8.756 -9.311,8.756 -2.21,0 -2.561,-0.223 -5.586,-1.886 -1.163,-0.664 -2.095,-0.998 -3.025,-0.998 -2.445,0 -3.375,1.885 -3.375,6.76 v 24.388 c -0.116,4.989 -3.026,8.202 -7.681,8.202 -4.657,0 -7.798,-3.325 -7.798,-8.202 V 280.66 c 0,-4.322 0.115,-5.32 1.047,-6.873 1.513,-2.546 3.841,-3.877 6.634,-3.877 3.143,0 5.586,1.55 7.1,4.322 3.606,-2.992 7.796,-4.656 11.986,-4.656 z m 28.275,-11.75 c 0,4.879 -4.191,8.868 -9.427,8.868 -5.004,0 -9.311,-3.99 -9.311,-8.646 0,-5.1 4.189,-8.98 9.543,-8.98 5.121,0.002 9.195,3.882 9.195,8.758 z m -1.397,56.199 v 1.66 c -0.117,4.99 -3.143,8.203 -7.682,8.203 -4.655,0 -7.797,-3.325 -7.797,-8.202 v -37.573 c 0.116,-4.99 3.142,-8.203 7.681,-8.203 4.655,0 7.798,3.325 7.798,8.203 z m 10.588,-51.212 v -1.661 c 0.116,-5.1 3.142,-8.201 7.797,-8.201 4.539,0 7.681,3.323 7.681,8.2 v 9.535 h 3.375 c 4.655,0.108 7.681,2.658 7.681,6.65 0,3.877 -3.141,6.649 -7.681,6.649 h -3.375 v 31.7 c -0.116,4.989 -3.143,8.202 -7.797,8.202 -4.539,0 -7.681,-3.325 -7.681,-8.202 v -31.7 h -0.816 c -5.004,0 -8.03,-2.55 -8.03,-6.65 0,-4.435 3.143,-6.762 8.846,-6.65 z m 44.455,-4.987 c 0,4.879 -4.19,8.868 -9.427,8.868 -5.004,0 -9.311,-3.99 -9.311,-8.646 0,-5.1 4.189,-8.98 9.543,-8.98 5.121,0.002 9.195,3.882 9.195,8.758 z m -1.396,56.199 v 1.66 c -0.117,4.99 -3.144,8.203 -7.682,8.203 -4.655,0 -7.798,-3.325 -7.798,-8.202 v -37.573 c 0.116,-4.99 3.143,-8.203 7.681,-8.203 4.655,0 7.799,3.325 7.799,8.203 z m 46.083,-54.978 v -1.662 c 0.116,-4.991 3.143,-8.204 7.682,-8.204 4.655,0 7.798,3.325 7.798,8.204 v 56.86 c 0,3.546 -0.232,4.986 -1.165,6.43 -1.164,2.103 -3.491,3.213 -6.284,3.213 -3.724,0 -5.936,-1.662 -7.333,-5.32 -5.004,4.1 -9.426,5.65 -15.827,5.65 -15.48,0 -26.885,-11.637 -26.885,-27.376 0,-15.516 11.405,-27.266 26.535,-27.266 6.052,0 10.708,1.553 15.479,5.097 z m -25.836,37.685 c 0,6.98 5.819,12.637 13.151,12.637 7.216,0 13.036,-5.655 13.036,-12.526 0,-6.872 -5.936,-12.414 -13.036,-12.414 -7.216,-10e-4 -13.151,5.54 -13.151,12.303 z m 87.282,-16.847 c 0,3.435 -3.26,6.538 -6.983,6.538 -1.979,0 -3.725,-0.554 -6.634,-2.217 -3.726,-1.993 -4.772,-2.55 -6.402,-2.55 -1.629,0 -2.909,1.22 -2.909,2.55 0,2.439 2.211,3.657 9.311,5.433 5.238,1.33 7.564,2.104 10.01,3.324 4.771,2.549 7.562,7.316 7.562,12.856 0,10.864 -9.193,18.399 -22.345,18.399 -12.104,0 -23.276,-6.981 -23.276,-14.52 0,-3.988 3.258,-7.537 7.1,-7.537 2.561,0 5.005,1.22 8.146,3.77 4.54,3.768 6.169,4.545 9.193,4.545 3.026,0 5.355,-1.664 5.355,-3.88 0,-1.884 -1.514,-2.991 -5.122,-3.77 -4.305,-0.996 -10.125,-2.88 -13.383,-4.321 -5.122,-2.44 -8.495,-7.65 -8.495,-13.08 0,-6.207 4.306,-11.971 10.939,-14.52 2.444,-0.887 5.586,-1.44 9.427,-1.44 9.892,0 18.506,4.877 18.506,10.42 z m 25.366,34.14 v 1.66 c -0.114,4.99 -3.142,8.203 -7.798,8.203 -4.653,0 -7.681,-3.325 -7.681,-8.202 v -31.7 c -5.471,-0.333 -8.263,-2.55 -8.263,-6.65 0,-3.991 3.141,-6.65 7.799,-6.65 h 0.464 v -1.33 c 0.118,-6.872 0.581,-9.421 2.096,-12.192 2.793,-5.1 7.914,-7.981 14.548,-7.981 8.031,0 14.665,4.656 14.665,10.42 0,4.1 -3.261,7.536 -7.102,7.536 -1.163,0 -2.327,-0.331 -3.259,-0.773 l -1.628,-0.89 c -0.466,-0.22 -0.931,-0.331 -1.28,-0.331 -1.166,0 -2.329,1.22 -2.443,2.77 -0.118,0.666 -0.118,1 -0.118,2.773 h 4.308 c 4.771,0.108 7.797,2.658 7.797,6.65 0,3.877 -3.144,6.649 -7.797,6.649 h -4.308 z m 26.881,10.086 c -10.823,0 -19.204,-8.312 -19.204,-18.954 0,-10.973 8.846,-19.397 20.252,-19.397 3.842,0 7.332,0.997 11.521,3.104 0,-5.431 -1.979,-7.427 -6.866,-7.427 -1.048,0 -2.792,0.22 -4.192,0.557 l -3.724,0.995 c -2.21,0.665 -3.489,0.886 -4.771,0.886 -3.606,0 -6.051,-2.438 -6.051,-5.874 0,-5.763 7.564,-9.533 18.506,-9.533 7.561,0 14.198,2.107 18.153,5.876 3.491,3.438 4.888,8.425 4.772,16.957 v 22.726 c 0,3.767 -0.348,5.207 -1.744,6.98 -1.516,1.886 -3.726,2.883 -6.286,2.883 -3.259,0 -5.47,-1.331 -7.216,-4.546 -4.538,3.323 -8.495,4.767 -13.15,4.767 z m 4.889,-27.048 c -4.188,0 -7.568,3.326 -7.568,7.43 0,4.212 3.38,7.425 7.8,7.425 4.306,0 7.448,-3.104 7.448,-7.204 0,-4.325 -3.26,-7.651 -7.68,-7.651 z m 62.144,-27.487 c 15.127,0 26.535,11.75 26.535,27.266 0,15.739 -11.408,27.377 -26.887,27.377 -6.401,0 -10.823,-1.552 -15.826,-5.651 -1.282,3.658 -3.608,5.32 -7.334,5.32 -2.792,0 -5.237,-1.221 -6.282,-3.213 -0.934,-1.554 -1.166,-2.884 -1.166,-6.43 v -56.86 c 0.118,-4.991 3.144,-8.204 7.798,-8.204 4.539,0 7.68,3.325 7.68,8.204 v 17.288 c 4.772,-3.544 9.428,-5.097 15.482,-5.097 z m -15.83,27.266 c 0,6.984 5.819,12.526 13.034,12.526 7.332,0 13.152,-5.655 13.152,-12.637 0,-6.762 -5.936,-12.304 -13.152,-12.304 -7.098,0 -13.034,5.543 -13.034,12.415 z m 73.432,-27.266 c 5.468,0 10.009,4.1 10.009,9.09 0,4.876 -4.191,8.756 -9.312,8.756 -2.21,0 -2.56,-0.223 -5.587,-1.886 -1.166,-0.664 -2.096,-0.998 -3.024,-0.998 -2.445,0 -3.377,1.885 -3.377,6.76 v 24.388 c -0.116,4.989 -3.026,8.202 -7.678,8.202 -4.658,0 -7.801,-3.325 -7.801,-8.202 V 280.66 c 0,-4.322 0.116,-5.32 1.047,-6.873 1.514,-2.546 3.84,-3.877 6.635,-3.877 3.144,0 5.586,1.55 7.1,4.322 3.607,-2.992 7.797,-4.656 11.988,-4.656 z m 28.272,-11.75 c 0,4.879 -4.188,8.868 -9.424,8.868 -5.004,0 -9.312,-3.99 -9.312,-8.646 0,-5.1 4.19,-8.98 9.545,-8.98 5.119,0.002 9.191,3.882 9.191,8.758 z m -1.395,56.199 v 1.66 c -0.117,4.99 -3.142,8.203 -7.683,8.203 -4.653,0 -7.797,-3.325 -7.797,-8.202 v -37.573 c 0.119,-4.99 3.144,-8.203 7.685,-8.203 4.653,0 7.795,3.325 7.795,8.203 z m 42.477,-41.345 1.278,-1.106 c 1.979,-1.331 4.074,-2.107 5.938,-2.107 3.955,0 7.562,3.547 7.562,7.535 0,2.549 -1.276,4.769 -3.955,6.54 l -1.397,0.997 -14.78,10.198 15.827,14.52 c 3.375,3.104 4.306,4.656 4.306,7.097 0,4.21 -3.606,7.646 -8.144,7.646 -1.981,0 -4.192,-1.107 -6.172,-2.992 l -1.162,-1.221 -18.387,-18.51 v 14.41 c -0.117,4.989 -3.029,8.202 -7.683,8.202 -4.656,0 -7.8,-3.325 -7.8,-8.202 v -58.301 c 0.119,-4.991 3.144,-8.204 7.8,-8.204 4.653,0 7.683,3.325 7.683,8.204 v 29.594 z m 52.018,0 1.279,-1.106 c 1.978,-1.331 4.073,-2.107 5.937,-2.107 3.954,0 7.565,3.547 7.565,7.535 0,2.549 -1.281,4.769 -3.959,6.54 l -1.396,0.997 -14.781,10.198 15.83,14.52 c 3.373,3.104 4.306,4.656 4.306,7.097 0,4.21 -3.611,7.646 -8.147,7.646 -1.979,0 -4.19,-1.107 -6.168,-2.992 l -1.164,-1.221 -18.39,-18.51 v 14.41 c -0.117,4.989 -3.024,8.202 -7.68,8.202 -4.656,0 -7.8,-3.325 -7.8,-8.202 v -58.301 c 0.117,-4.991 3.144,-8.204 7.8,-8.204 4.655,0 7.68,3.325 7.68,8.204 v 29.594 z"
       id="path1168" />
    <path
       d="m 603.145,309.035 c 3.142,0 5.817,-0.887 8.959,-3.104 1.864,-1.33 3.144,-1.772 4.89,-1.772 4.424,0 7.797,3.213 7.797,7.315 0,3.102 -1.744,5.542 -5.82,8.2 -4.303,2.882 -10.239,4.544 -15.825,4.544 -15.597,0 -28.865,-12.634 -28.865,-27.487 0,-14.74 13.037,-27.155 28.397,-27.155 12.57,0 24.324,8.757 24.324,18.4 0,3.213 -1.746,5.209 -6.399,7.203 l -25.836,10.862 c 2.558,2.108 5.003,2.994 8.378,2.994 z m 0,-25.05 c -6.75,0 -12.336,4.878 -12.918,11.195 l 19.784,-8.091 c -1.513,-2.217 -3.724,-3.103 -6.866,-3.103 z m 61.445,13.078 c 0,-4.431 -0.233,-5.764 -1.047,-7.646 -1.396,-2.993 -4.89,-5.098 -8.498,-5.098 -5.353,0 -9.427,4.212 -9.427,9.53 v 21.837 c -0.114,4.989 -3.142,8.202 -7.797,8.202 -4.541,0 -7.683,-3.325 -7.683,-8.202 v -20.394 c 0,-7.204 1.632,-12.192 5.472,-16.848 4.655,-5.543 11.871,-8.867 19.319,-8.867 8.613,0 17.109,4.543 21.765,11.75 2.211,3.436 3.375,8.533 3.375,14.408 v 19.95 c -0.117,4.99 -3.144,8.203 -7.683,8.203 -4.655,0 -7.797,-3.325 -7.797,-8.202 v -18.623 z"
       id="path1170" />
  </g>
  <path
     opacity="0.6"
     fill-rule="evenodd"
     clip-rule="evenodd"
     fill="#e6624a"
     d="m 487.53827,66.014177 c 0.0555,-7.695 -6.2505,-14.1165 -13.92,-14.181 -7.623,-0.0645 -14.076,6.3375 -14.1255,14.013 -0.0555,7.6635 6.258,14.0625 13.947,14.148 7.662,0.075 14.049,-6.252 14.0985,-13.98 z"
     id="path1174"
     style="stroke-width:1.5" />
  <path
     fill-rule="evenodd"
     clip-rule="evenodd"
     fill="#e6624a"
     d="m 492.08027,96.365177 c 0.0285,-3.9195 -3.186,-7.197 -7.0965,-7.23 -3.882,-0.03 -7.173,3.237 -7.2,7.146 -0.0285,3.912003 3.1905,7.173003 7.1115,7.213503 3.903,0.039 7.1595,-3.189 7.185,-7.128003 z"
     id="path1176"
     style="stroke-width:1.5" />
  <path
     opacity="0.7"
     fill-rule="evenodd"
     clip-rule="evenodd"
     fill="#00aae5"
     d="m 503.78627,43.595177 c 0.0315,-4.623 -3.756,-8.481 -8.3685,-8.5245 -4.581,-0.036 -8.46,3.81 -8.49,8.427 -0.036,4.605 3.762,8.454 8.3835,8.5005 4.6065,0.051 8.4435,-3.753 8.475,-8.4015 z"
     id="path1178"
     style="stroke-width:1.5" />
  <path
     d="M 113.401,0 C 67.991,0 28.837,26.701 10.725,65.246 c 0.657,1.013 1.35,2.012 1.965,3.049 6.178,10.448 12.08,21.05 18.225,31.514 7.649,13.017 18.73,20.387 33.478,22.187 l 29.975,1.934 c 0.49,-0.188 1.006,-0.307 1.55,-0.284 l 15.329,0.471 c 9.517,-0.285 19.041,-0.663 28.556,-0.574 14.196,0.124 25.6,-5.897 34.242,-17.37 8.872,-11.781 17.035,-24.16 25.66,-36.167 A 240.245,240.245 0 0 1 210.948,55.578 C 191.183,22.31 154.905,0 113.401,0 Z m 28.133,58.719 c 0.93,0.006 1.866,0.059 2.81,0.16 14.88,1.595 25.884,15.338 24.334,30.432 -1.512,14.896 -15.36,25.89 -30.46,24.164 C 123.013,111.74 112.223,98.283 113.95,83.166 115.564,69.04 127.593,58.632 141.534,58.719 Z m -79.436,8.713 c 0.783,0.005 1.573,0.049 2.367,0.134 C 76.99,68.906 86.259,80.48 84.952,93.188 83.679,105.731 72.02,114.986 59.305,113.533 46.503,112.073 37.421,100.746 38.872,88.012 40.231,76.119 50.36,67.355 62.098,67.432 Z"
     fill="#00aae5"
     id="path1180" />
  <path
     fill="#e7624b"
     d="m 27.713,135.154 c 1.854,-5.19 1.858,-9.922 -1.247,-14.975 C 18.887,107.841 11.523,95.379 4.185,82.896 A 113.365,113.365 0 0 0 0,113.396 c 0,18.484 4.451,35.918 12.296,51.338 6.394,-9.208 11.621,-19.01 15.417,-29.58 z"
     id="path1182" />
  <path
     fill="#e6624a"
     d="m 105.019,223.94 14.529,-40.252 c 1.278,-3.977 2.542,-7.96 3.834,-11.926 2.148,-6.584 4.428,-13.11 6.734,-19.622 3.1,-8.814 0.673,-14.198 -8.106,-15.87 l -26.422,-0.826 a 3.965,3.965 0 0 1 -1.712,-0.457 c -0.159,0.046 -0.322,0.072 -0.48,0.124 -0.01,-0.03 -0.024,-0.07 -0.028,-0.103 -0.015,-0.042 -0.027,-0.082 -0.039,-0.12 L 77.36,133.855 c -0.914,0.132 -1.823,0.33 -2.708,0.565 -5.208,1.349 -7.431,4.48 -6.241,9.746 1.645,7.312 3.342,14.618 5.037,21.92 l 12.285,41.008 a 5.52,5.52 0 0 1 -3.713,6.879 c -2.611,0.784 -5.342,-0.476 -6.518,-2.837 a 9.677,9.677 0 0 1 -0.936,-1.83 c -1.717,-4.427 -2.824,-9.081 -4.584,-13.485 -3.546,-8.912 -6.416,-18.271 -11.243,-26.461 -8.399,-14.252 -22.863,-14.99 -33.922,-2.63 -2.355,2.626 -4.437,5.485 -6.604,8.273 18.762,28.923 50.327,48.745 86.681,51.442 -0.168,-0.828 -0.155,-1.684 0.125,-2.504 z M 218.894,71.805 c -12.906,18.453 -25.821,36.925 -38.96,55.216 -3.461,4.82 -4.222,9.712 -3.046,15.39 2.864,13.713 8.044,26.449 14.223,38.774 1.104,2.219 2.35,4.402 3.115,6.754 1.311,4.019 -0.312,6.629 -4.219,7.406 -3.357,0.672 -5.463,-0.88 -7.29,-3.81 -3.291,-5.286 -6.402,-10.876 -10.511,-15.392 -8.461,-9.31 -20.947,-9.607 -29.546,-0.424 -4.845,5.17 -8.95,11.435 -12.177,17.885 -5.235,10.414 -9.498,21.378 -14.188,32.114 l -0.346,1.016 c 61.446,-1.358 110.854,-51.562 110.854,-113.337 0,-14.687 -2.825,-28.711 -7.909,-41.592 z"
     id="path1184" />
  <path
     opacity="0.7"
     fill-rule="evenodd"
     clip-rule="evenodd"
     fill="#00aae5"
     d="m 369.63827,90.942677 c -0.054,-7.695 6.2505,-14.1165 13.9215,-14.1825 7.6215,-0.063 14.073,6.3375 14.1255,14.013 0.057,7.6635 -6.2595,14.065503 -13.947,14.151003 -7.662,0.075 -14.049,-6.255003 -14.1,-13.981503 z"
     id="path1186"
     style="stroke-width:1.5" />
  <path
     fill-rule="evenodd"
     clip-rule="evenodd"
     fill="#00aae5"
     d="m 401.44877,101.10068 c -0.027,-3.919503 3.186,-7.200003 7.0965,-7.230003 3.882,-0.0315 7.173,3.234 7.2,7.143003 0.027,3.9105 -3.1905,7.173 -7.11,7.2135 -3.903,0.0405 -7.161,-3.1875 -7.1865,-7.1265 z"
     id="path1188"
     style="stroke-width:1.5" />
  <path
     opacity="0.6"
     fill-rule="evenodd"
     clip-rule="evenodd"
     fill="#e6624a"
     d="m 383.27927,59.637677 c -0.03,-4.6245 3.7575,-8.4855 8.3685,-8.526 4.5825,-0.036 8.46,3.81 8.49,8.4225 0.036,4.6095 -3.7605,8.4555 -8.3835,8.5035 -4.605,0.0525 -8.442,-3.75 -8.475,-8.4 z"
     id="path1190"
     style="stroke-width:1.5" />
  <path
     opacity="0.7"
     fill-rule="evenodd"
     clip-rule="evenodd"
     fill="#00aae5"
     d="m 945.6683,93.015677 c 0.055,-7.2495 -5.8875,-13.2975 -13.1145,-13.365 -7.1775,-0.0555 -13.2555,5.973 -13.308,13.2075 -0.056,7.218003 5.8995,13.249503 13.14,13.327503 7.2165,0.0735 13.233,-5.895 13.2825,-13.170003 z"
     id="path1192"
     style="stroke-width:1.5" />
  <path
     fill-rule="evenodd"
     clip-rule="evenodd"
     fill="#00aae5"
     d="m 963.5393,69.791177 c 0.032,-4.626 -3.7545,-8.4855 -8.37,-8.529 -4.5825,-0.0345 -8.46,3.81 -8.4885,8.4255 -0.032,4.6095 3.765,8.4555 8.382,8.5035 4.608,0.0495 8.4465,-3.7545 8.4765,-8.4 z"
     id="path1194"
     style="stroke-width:1.5" />
</svg>
